<?xml version="1.0" encoding="utf-8" standalone="no"?>
<!DOCTYPE svg PUBLIC "-//W3C//DTD SVG 1.1//EN"
  "http://www.w3.org/Graphics/SVG/1.1/DTD/svg11.dtd">
<svg xmlns:xlink="http://www.w3.org/1999/xlink" width="576pt" height="396pt" viewBox="0 0 576 396" xmlns="http://www.w3.org/2000/svg" version="1.1">
 <metadata>
  <rdf:RDF xmlns:dc="http://purl.org/dc/elements/1.1/" xmlns:cc="http://creativecommons.org/ns#" xmlns:rdf="http://www.w3.org/1999/02/22-rdf-syntax-ns#">
   <cc:Work>
    <dc:type rdf:resource="http://purl.org/dc/dcmitype/StillImage"/>
    <dc:date>2026-07-06T21:41:44.801214</dc:date>
    <dc:format>image/svg+xml</dc:format>
    <dc:creator>
     <cc:Agent>
      <dc:title>Matplotlib v3.11.0, https://matplotlib.org/</dc:title>
     </cc:Agent>
    </dc:creator>
   </cc:Work>
  </rdf:RDF>
 </metadata>
 <defs>
  <style type="text/css">*{stroke-linejoin: round; stroke-linecap: butt}</style>
 </defs>
 <g id="figure_1">
  <g id="patch_1">
   <path d="M 0 396 
L 576 396 
L 576 0 
L 0 0 
L 0 396 
z
" style="fill: none; opacity: 0"/>
  </g>
  <g id="axes_1">
   <g id="patch_2">
    <path d="M 57.6 277.2 
L 501.12 277.2 
L 501.12 39.6 
L 57.6 39.6 
L 57.6 277.2 
z
" style="fill: none; opacity: 0"/>
   </g>
   <g id="patch_3">
    <path d="M 168.48 275.418 
L 501.12 275.418 
L 501.12 267.102 
L 168.48 267.102 
z
" clip-path="url(#p377da501aa)" style="fill: #1b4f72"/>
   </g>
   <g id="patch_4">
    <path d="M 168.48 263.538 
L 501.12 263.538 
L 501.12 255.222 
L 168.48 255.222 
z
" clip-path="url(#p377da501aa)" style="fill: #1b4f72"/>
   </g>
   <g id="patch_5">
    <path d="M 168.48 251.658 
L 501.12 251.658 
L 501.12 243.342 
L 168.48 243.342 
z
" clip-path="url(#p377da501aa)" style="fill: #1b4f72"/>
   </g>
   <g id="patch_6">
    <path d="M 168.48 239.778 
L 501.12 239.778 
L 501.12 231.462 
L 168.48 231.462 
z
" clip-path="url(#p377da501aa)" style="fill: #1b4f72"/>
   </g>
   <g id="patch_7">
    <path d="M 242.4 227.898 
L 501.12 227.898 
L 501.12 219.582 
L 242.4 219.582 
z
" clip-path="url(#p377da501aa)" style="fill: #1b4f72"/>
   </g>
   <g id="patch_8">
    <path d="M 242.4 216.018 
L 501.12 216.018 
L 501.12 207.702 
L 242.4 207.702 
z
" clip-path="url(#p377da501aa)" style="fill: #1b4f72"/>
   </g>
   <g id="patch_9">
    <path d="M 242.4 204.138 
L 501.12 204.138 
L 501.12 195.822 
L 242.4 195.822 
z
" clip-path="url(#p377da501aa)" style="fill: #1b4f72"/>
   </g>
   <g id="patch_10">
    <path d="M 242.4 192.258 
L 501.12 192.258 
L 501.12 183.942 
L 242.4 183.942 
z
" clip-path="url(#p377da501aa)" style="fill: #1b4f72"/>
   </g>
   <g id="patch_11">
    <path d="M 316.32 180.378 
L 501.12 180.378 
L 501.12 172.062 
L 316.32 172.062 
z
" clip-path="url(#p377da501aa)" style="fill: #1b4f72"/>
   </g>
   <g id="patch_12">
    <path d="M 316.32 168.498 
L 501.12 168.498 
L 501.12 160.182 
L 316.32 160.182 
z
" clip-path="url(#p377da501aa)" style="fill: #1b4f72"/>
   </g>
   <g id="patch_13">
    <path d="M 316.32 156.618 
L 501.12 156.618 
L 501.12 148.302 
L 316.32 148.302 
z
" clip-path="url(#p377da501aa)" style="fill: #1b4f72"/>
   </g>
   <g id="patch_14">
    <path d="M 316.32 144.738 
L 501.12 144.738 
L 501.12 136.422 
L 316.32 136.422 
z
" clip-path="url(#p377da501aa)" style="fill: #1b4f72"/>
   </g>
   <g id="patch_15">
    <path d="M 390.24 132.858 
L 501.12 132.858 
L 501.12 124.542 
L 390.24 124.542 
z
" clip-path="url(#p377da501aa)" style="fill: #1b4f72"/>
   </g>
   <g id="patch_16">
    <path d="M 390.24 120.978 
L 501.12 120.978 
L 501.12 112.662 
L 390.24 112.662 
z
" clip-path="url(#p377da501aa)" style="fill: #1b4f72"/>
   </g>
   <g id="patch_17">
    <path d="M 390.24 109.098 
L 501.12 109.098 
L 501.12 100.782 
L 390.24 100.782 
z
" clip-path="url(#p377da501aa)" style="fill: #1b4f72"/>
   </g>
   <g id="patch_18">
    <path d="M 390.24 97.218 
L 501.12 97.218 
L 501.12 88.902 
L 390.24 88.902 
z
" clip-path="url(#p377da501aa)" style="fill: #1b4f72"/>
   </g>
   <g id="patch_19">
    <path d="M 464.16 85.338 
L 501.12 85.338 
L 501.12 77.022 
L 464.16 77.022 
z
" clip-path="url(#p377da501aa)" style="fill: #1b4f72"/>
   </g>
   <g id="patch_20">
    <path d="M 464.16 73.458 
L 501.12 73.458 
L 501.12 65.142 
L 464.16 65.142 
z
" clip-path="url(#p377da501aa)" style="fill: #1b4f72"/>
   </g>
   <g id="patch_21">
    <path d="M 464.16 61.578 
L 501.12 61.578 
L 501.12 53.262 
L 464.16 53.262 
z
" clip-path="url(#p377da501aa)" style="fill: #1b4f72"/>
   </g>
   <g id="patch_22">
    <path d="M 464.16 49.698 
L 501.12 49.698 
L 501.12 41.382 
L 464.16 41.382 
z
" clip-path="url(#p377da501aa)" style="fill: #1b4f72"/>
   </g>
   <g id="matplotlib.axis_1"/>
   <g id="matplotlib.axis_2"/>
  </g>
 </g>
 <defs>
  <clipPath id="p377da501aa">
   <rect x="57.6" y="39.6" width="443.52" height="237.6"/>
  </clipPath>
 </defs>
</svg>
